<?xml version="1.0" encoding="UTF-8"?>
<svg version="1.1" xmlns="http://www.w3.org/2000/svg" width="504" height="504">
<path d="M0 0 C0.75140259 -0.0049649 1.50280518 -0.00992981 2.27697754 -0.01504517 C4.77865503 -0.02972038 7.28026884 -0.03648221 9.78198242 -0.04199219 C11.52300518 -0.04774497 13.26402793 -0.05350269 15.00505066 -0.05926514 C18.66792089 -0.06979421 22.33076909 -0.07562249 25.99365234 -0.07910156 C30.65930604 -0.08455091 35.32466264 -0.10849361 39.99022388 -0.13707352 C43.59448551 -0.15582896 47.19867796 -0.16091259 50.80298424 -0.16243744 C52.52076506 -0.16544207 54.23854532 -0.1733955 55.95627785 -0.18662262 C75.14337765 -0.32366294 92.36052125 3.67472484 106.82495117 17.16113281 C114.37083253 24.63820674 120.71187471 32.82270745 126.99682617 41.36035156 C129.98117975 45.40357291 133.15024717 49.27193233 136.36010742 53.13769531 C139.51853966 57.01190538 142.57758274 60.95888887 145.63745117 64.91113281 C150.53650823 71.23653095 155.48386251 77.51784222 160.49389648 83.75561523 C165.19523159 89.61189808 169.83495343 95.51536688 174.46606445 101.42724609 C177.20554377 104.92271539 179.95097986 108.41350982 182.69580078 111.90478516 C185.01564513 114.85611286 187.3328899 117.80941589 189.64526367 120.76660156 C194.54424172 127.02617064 199.50077573 133.22431762 204.55932617 139.35644531 C207.57778087 143.09308406 210.49097014 146.9068949 213.37597656 150.74731445 C215.6751864 153.78030461 218.06474445 156.53988387 220.82495117 159.16113281 C225.62521194 157.8028868 227.62200031 155.22615902 230.26245117 151.22363281 C231.13957597 149.94636596 232.01858718 148.67039313 232.89916992 147.39550781 C233.36887207 146.71037109 233.83857422 146.02523437 234.32250977 145.31933594 C236.99512251 141.4802237 239.78985307 137.73150714 242.57495117 133.97363281 C243.77428148 132.3500173 244.97349889 130.72631838 246.17260742 129.10253906 C246.77476074 128.2880127 247.37691406 127.47348633 247.99731445 126.63427734 C251.00617592 122.5627082 254.00934785 118.48694993 257.01245117 114.41113281 C257.88981934 113.22064331 257.88981934 113.22064331 258.78491211 112.00610352 C262.30457778 107.22906149 265.81788803 102.44743282 269.32495117 97.66113281 C286.52638451 74.19218981 286.52638451 74.19218981 295.07495117 62.84863281 C298.74423499 57.97669943 302.35485772 53.07061268 305.88745117 48.09863281 C335.82252188 5.98229566 335.82252188 5.98229566 363.82495117 0.16113281 C369.93623616 -0.60328691 376.08587039 -0.42822107 382.23120117 -0.32714844 C383.93468168 -0.317792 385.63817588 -0.31068934 387.3416748 -0.30570984 C391.76746537 -0.28686209 396.19240025 -0.23796163 400.61785889 -0.18218994 C405.15682407 -0.13050962 409.69593115 -0.10809302 414.23510742 -0.08300781 C423.09877594 -0.02981417 431.96175634 0.05521831 440.82495117 0.16113281 C441.96593957 3.58409799 441.69763715 4.24055339 440.52416992 7.5168457 C440.05526588 8.84712799 440.05526588 8.84712799 439.57688904 10.20428467 C439.22562454 11.17102112 438.87436005 12.13775757 438.51245117 13.13378906 C438.15220352 14.14765686 437.79195587 15.16152466 437.42079163 16.20611572 C436.23082872 19.54844655 435.02798001 22.88598499 433.82495117 26.22363281 C432.99658612 28.54194717 432.16903808 30.8605536 431.34228516 33.17944336 C429.65636874 37.90363364 427.96530087 42.62592977 426.26977539 47.34667969 C424.05865768 53.50452944 421.86242432 59.66755624 419.67260742 65.83300781 C413.79394773 82.37214614 407.88748927 98.89993909 401.76269531 115.34985352 C398.93582474 122.98351539 396.26256521 130.6632579 393.61401367 138.36035156 C389.33027578 150.79675149 384.86433982 163.16128341 380.34182739 175.51254272 C374.09094913 192.58986445 367.87934701 209.67856641 361.88745117 226.84863281 C357.53811051 239.31089556 353.12254231 251.74701051 348.63745117 264.16113281 C348.21570114 265.32979385 348.21570114 265.32979385 347.78543091 266.52206421 C346.99378138 268.71467791 346.20072842 270.90677729 345.40698242 273.09863281 C345.05793854 274.06462151 345.05793854 274.06462151 344.70184326 275.05012512 C343.78644146 277.57190578 342.85657565 280.08255884 341.85484314 282.57145691 C340.89199136 284.99255943 339.99817525 287.42379373 339.13256836 289.88110352 C338.81173279 290.79007889 338.49089722 291.69905426 338.16033936 292.63557434 C337.64627533 294.0964875 337.64627533 294.0964875 337.12182617 295.58691406 C336.38096512 297.68522996 335.64007886 299.78353695 334.89916992 301.88183594 C333.74255327 305.16135347 332.58643215 308.44104456 331.4309082 311.72094727 C330.3083956 314.90591354 329.18393725 318.09018825 328.05932617 321.27441406 C327.72471375 322.22608963 327.39010132 323.1777652 327.04534912 324.15827942 C324.08521874 332.53546627 320.96300932 340.84939366 317.82495117 349.16113281 C308.00246112 349.34656297 298.18038783 349.48867333 288.35650349 349.57563019 C283.79465699 349.61736813 279.23400848 349.67396653 274.67285156 349.76464844 C270.27017156 349.85163093 265.86864286 349.89941745 261.46516991 349.92015076 C259.7860927 349.93492332 258.10707798 349.96377332 256.42849159 350.00697327 C243.30056924 350.33136759 243.30056924 350.33136759 239.75761414 347.52163696 C238.41496749 345.43139905 237.5972671 343.51584602 236.82495117 341.16113281 C236.31601318 340.20770996 235.8070752 339.25428711 235.28271484 338.27197266 C234.85708252 337.39750488 234.4314502 336.52303711 233.99291992 335.62207031 C233.50855469 334.63658203 233.02418945 333.65109375 232.52514648 332.63574219 C232.02595703 331.61287109 231.52676758 330.59 231.01245117 329.53613281 C227.13530453 321.67737262 223.12766902 314.00550977 218.68823242 306.45019531 C216.56880082 302.70897642 214.65734892 298.89429857 212.76245117 295.03613281 C206.45061927 282.29309273 199.03895848 271.1453816 190.24780273 259.98535156 C189.54349121 259.08236328 189.54349121 259.08236328 188.82495117 258.16113281 C188.27033203 257.46632813 187.71571289 256.77152344 187.14428711 256.05566406 C185.82495117 254.16113281 185.82495117 254.16113281 185.82495117 252.16113281 C185.16495117 252.16113281 184.50495117 252.16113281 183.82495117 252.16113281 C182.21513945 250.2559428 180.72991849 248.3585762 179.26245117 246.34863281 C178.8505957 245.80142578 178.43874023 245.25421875 178.0144043 244.69042969 C176.16346098 242.19120181 174.81507689 240.13150996 173.82495117 237.16113281 C173.16495117 237.16113281 172.50495117 237.16113281 171.82495117 237.16113281 C170.37182617 235.38769531 170.37182617 235.38769531 168.57495117 232.78613281 C164.8340598 227.50807517 160.93544174 222.38185953 156.94995117 217.28613281 C155.73116991 215.7262614 154.51241966 214.16636576 153.29370117 212.60644531 C152.70459961 211.85266602 152.11549805 211.09888672 151.50854492 210.32226562 C149.13932246 207.28103053 146.79359282 204.22209324 144.44995117 201.16113281 C141.06615664 196.75343928 137.62534721 192.39988244 134.14135742 188.07128906 C131.06695583 184.20884525 128.0398566 180.31046344 125.01245117 176.41113281 C119.4165147 169.20360235 113.79633374 162.01604183 108.15161133 154.84667969 C105.41628489 151.3713956 102.6848033 147.89308619 99.95361328 144.41455078 C97.64130388 141.47011406 95.32595657 138.52816175 93.00463867 135.59082031 C76.73944565 114.99012177 76.73944565 114.99012177 74.82495117 111.16113281 C73.83495117 111.16113281 72.84495117 111.16113281 71.82495117 111.16113281 C71.83544715 112.93998761 71.83544715 112.93998761 71.84615517 114.75477886 C72.0117705 142.89976575 72.16695054 171.04479612 72.3092641 199.1899106 C72.326786 202.65338155 72.34439603 206.11685204 72.36206055 209.58032227 C72.36557578 210.26984273 72.36909102 210.95936319 72.37271278 211.66977821 C72.42985634 222.83736041 72.49414171 234.00489067 72.56106217 245.17241808 C72.62955959 256.62960589 72.69024064 268.08681047 72.74409521 279.54407769 C72.77459626 285.9801701 72.80867546 292.41619932 72.85121536 298.85222435 C72.89112432 304.90708325 72.92159814 310.96191556 72.94476509 317.01686096 C72.95495377 319.2417215 72.96862064 321.46656918 72.98598671 323.69138527 C73.00914588 326.72436891 73.01989522 329.75715023 73.02749634 332.79020691 C73.04207128 334.11657418 73.04207128 334.11657418 73.05694067 335.46973675 C73.0542703 339.83174358 72.86645628 343.19550694 70.82495117 347.16113281 C70.49495117 347.82113281 70.16495117 348.48113281 69.82495117 349.16113281 C44.41495117 349.16113281 19.00495117 349.16113281 -7.17504883 349.16113281 C-8.5052733 346.50068386 -8.30042896 344.4950726 -8.30088997 341.51422024 C-8.30349772 340.30559997 -8.30610546 339.0969797 -8.30879223 337.85173458 C-8.30662985 336.49844119 -8.30437318 335.14514795 -8.30203247 333.79185486 C-8.30318367 332.36366011 -8.30477118 330.93546566 -8.30675972 329.50727183 C-8.31095319 325.56876862 -8.30886227 321.63028949 -8.3057735 317.69178617 C-8.30351972 313.44977042 -8.30699889 309.20775893 -8.30975342 304.96574402 C-8.31421022 296.65041466 -8.31323508 288.33509431 -8.31034078 280.01976459 C-8.30808655 273.26495647 -8.30777431 266.51015088 -8.30886459 259.75534248 C-8.30901783 258.7956272 -8.30917106 257.83591191 -8.30932894 256.84711434 C-8.30964865 254.89776114 -8.30997286 252.94840794 -8.31030153 250.99905474 C-8.31315602 232.70158288 -8.3098697 214.40411603 -8.30450116 196.106645 C-8.30003244 180.38904663 -8.30080968 164.67145565 -8.30541992 148.95385742 C-8.310765 130.72233142 -8.31288208 112.4908098 -8.30980766 94.25928313 C-8.30948909 92.31722454 -8.30917472 90.37516596 -8.30886459 88.43310738 C-8.30863318 86.99963018 -8.30863318 86.99963018 -8.30839709 85.53719385 C-8.30753179 78.78596871 -8.30899508 72.03474635 -8.31134415 65.28352165 C-8.31414158 57.06263089 -8.31340506 48.84174969 -8.3080634 40.62086003 C-8.30542572 36.42233945 -8.30442245 32.22383482 -8.30771255 28.02531433 C-8.31067412 24.1881703 -8.30908506 20.35105716 -8.303735 16.51391596 C-8.30261022 15.11962024 -8.30320332 13.72532195 -8.30561079 12.33102786 C-8.30861467 10.44808839 -8.30496142 8.56514171 -8.30088997 6.68220425 C-8.30072762 5.63260224 -8.30056526 4.58300023 -8.30039799 3.5015921 C-8.03721828 -1.41237278 -3.92424279 0.00612452 0 0 Z M328.82495117 125.16113281 C326.98950581 127.2694957 325.27193219 129.38276124 323.57495117 131.59863281 C323.07842041 132.23808838 322.58188965 132.87754395 322.0703125 133.53637695 C318.90043488 137.65374132 315.95337238 141.86356752 313.13745117 146.23144531 C311.43761077 148.73061542 309.48971126 150.93257447 307.49291992 153.19628906 C302.52902942 159.04368233 298.12926238 165.38316613 293.59057617 171.56347656 C292.41882374 173.15861869 291.24694527 174.75366823 290.07495117 176.34863281 C289.47618164 177.16364258 288.87741211 177.97865234 288.26049805 178.81835938 C284.33830834 184.14372818 280.35823866 189.41952445 276.32495117 194.66113281 C271.1295471 201.41365403 266.04023009 208.23779354 261.01367188 215.11694336 C258.15891968 219.01898683 255.27727645 222.89112427 252.30932617 226.70800781 C251.47606812 227.78779907 251.47606812 227.78779907 250.62597656 228.8894043 C249.58244203 230.23736228 248.53008354 231.5785549 247.46728516 232.91137695 C243.89040814 237.55210119 242.7522127 240.96064001 242.88745117 246.91113281 C244.31534507 251.861165 247.05247739 255.8511963 249.82495117 260.16113281 C250.41002441 261.08434326 250.99509766 262.00755371 251.59790039 262.95874023 C252.77869257 264.81956386 253.96338385 266.67791944 255.15209961 268.53369141 C256.65339853 270.89168601 258.12510168 273.26429699 259.58276367 275.64941406 C260.37156829 276.92431324 261.1606112 278.19906502 261.94995117 279.47363281 C262.6331543 280.58351563 263.31635742 281.69339844 264.02026367 282.83691406 C264.61581055 283.60390625 265.21135742 284.37089844 265.82495117 285.16113281 C266.81495117 285.16113281 267.80495117 285.16113281 268.82495117 285.16113281 C268.82495117 285.82113281 268.82495117 286.48113281 268.82495117 287.16113281 C270.79106121 286.94179935 270.79106121 286.94179935 272.82495117 286.16113281 C274.0332724 283.33970275 274.96524718 280.71327588 275.82495117 277.78613281 C276.3420963 276.13084583 276.86032251 274.47589621 277.37963867 272.82128906 C277.62681641 272.0170752 277.87399414 271.21286133 278.12866211 270.38427734 C278.99023719 267.63339982 279.95038408 264.92718631 280.94995117 262.22363281 C281.2619043 261.37929688 281.57385742 260.53496094 281.89526367 259.66503906 C282.20206055 258.83875 282.50885742 258.01246094 282.82495117 257.16113281 C283.49288452 255.32826059 284.15952717 253.49491755 284.82495117 251.66113281 C285.15881836 250.74460937 285.49268555 249.82808594 285.83666992 248.88378906 C286.46850159 247.14313027 287.0964877 245.40106768 287.71948242 243.65722656 C290.1753593 236.81212291 292.79732361 230.03660389 295.45117188 223.26635742 C295.74338623 222.5200708 296.03560059 221.77378418 296.33666992 221.00488281 C296.7305188 220.00231445 296.7305188 220.00231445 297.13232422 218.97949219 C297.7382862 217.3886551 298.28662482 215.77611185 298.82495117 214.16113281 C299.70491086 211.71423851 300.58897748 209.26905268 301.47729492 206.82519531 C301.73748917 206.10882904 301.99768341 205.39246277 302.26576233 204.65438843 C302.81612281 203.13963235 303.36670086 201.6249553 303.91748047 200.11035156 C304.75665523 197.80207543 305.59454631 195.49333602 306.43237305 193.18457031 C306.9681015 191.71058332 307.5039063 190.23662408 308.03979492 188.76269531 C308.28882065 188.07607819 308.53784637 187.38946106 308.79441833 186.68203735 C310.08032462 183.14997063 311.41219 179.64431315 312.82495117 176.16113281 C314.64251885 171.34741842 316.43381565 166.55455312 317.82495117 161.59863281 C318.9329754 157.78979954 320.37589055 154.20362469 321.86791992 150.53222656 C322.98363944 147.76797452 324.03402748 145.03721897 324.82495117 142.16113281 C324.32995117 141.17113281 324.32995117 141.17113281 323.82495117 140.16113281 C324.48495117 140.16113281 325.14495117 140.16113281 325.82495117 140.16113281 C326.01831055 139.58105469 326.21166992 139.00097656 326.41088867 138.40332031 C327.88224284 133.98925781 329.35359701 129.57519531 330.82495117 125.16113281 C330.16495117 125.16113281 329.50495117 125.16113281 328.82495117 125.16113281 Z " fill="#6E56AC" transform="translate(47.175048828125,70.8388671875)"/>
<path d="M0 0 C1.70348051 0.00935644 3.40697471 0.0164591 5.11047363 0.0214386 C9.5362642 0.04028635 13.96119908 0.0891868 18.38665771 0.1449585 C22.92562289 0.19663882 27.46472998 0.21905542 32.00390625 0.24414062 C40.86757477 0.29733427 49.73055516 0.38236674 58.59375 0.48828125 C59.73473839 3.91124643 59.46643598 4.56770182 58.29296875 7.84399414 C57.82406471 9.17427643 57.82406471 9.17427643 57.34568787 10.53143311 C56.99442337 11.49816956 56.64315887 12.46490601 56.28125 13.4609375 C55.92100235 14.4748053 55.5607547 15.4886731 55.18959045 16.53326416 C53.99962755 19.87559499 52.79677884 23.21313343 51.59375 26.55078125 C50.76538495 28.8690956 49.93783691 31.18770204 49.11108398 33.5065918 C47.42516756 38.23078208 45.7340997 42.95307821 44.03857422 47.67382812 C41.82745651 53.83167788 39.63122315 59.99470468 37.44140625 66.16015625 C31.56274655 82.69929458 25.65628809 99.22708753 19.53149414 115.67700195 C16.70462357 123.31066383 14.03136404 130.99040634 11.3828125 138.6875 C7.09907461 151.12389993 2.63313865 163.48843185 -1.88937378 175.83969116 C-8.14025205 192.91701289 -14.35185417 210.00571485 -20.34375 227.17578125 C-24.69309066 239.638044 -29.10865886 252.07415894 -33.59375 264.48828125 C-33.87491669 265.26738861 -34.15608337 266.04649597 -34.44577026 266.84921265 C-35.2374198 269.04182635 -36.03047275 271.23392573 -36.82421875 273.42578125 C-37.05691467 274.06977371 -37.2896106 274.71376617 -37.52935791 275.37727356 C-38.44475972 277.89905422 -39.37462552 280.40970728 -40.37635803 282.89860535 C-41.33920981 285.31970787 -42.23302593 287.75094217 -43.09863281 290.20825195 C-43.41946838 291.11722733 -43.74030396 292.0262027 -44.07086182 292.96272278 C-44.41357117 293.93666489 -44.75628052 294.91060699 -45.109375 295.9140625 C-45.85023605 298.0123784 -46.59112231 300.11068539 -47.33203125 302.20898438 C-48.4886479 305.48850191 -49.64476902 308.768193 -50.80029297 312.0480957 C-51.92280557 315.23306198 -53.04726392 318.41733669 -54.171875 321.6015625 C-54.50648743 322.55323807 -54.84109985 323.50491364 -55.18585205 324.48542786 C-58.14598243 332.8626147 -61.26819185 341.1765421 -64.40625 349.48828125 C-74.22874005 349.67371141 -84.05081334 349.81582177 -93.87469769 349.90277863 C-98.43654418 349.94451657 -102.99719269 350.00111497 -107.55834961 350.09179688 C-111.96102962 350.17877937 -116.36255831 350.22656588 -120.76603127 350.24729919 C-122.44510848 350.26207176 -124.12412319 350.29092176 -125.80270958 350.3341217 C-138.93063193 350.65851603 -138.93063193 350.65851603 -142.47358704 347.8487854 C-143.81623368 345.75854749 -144.63393407 343.84299446 -145.40625 341.48828125 C-145.91518799 340.5348584 -146.42412598 339.58143555 -146.94848633 338.59912109 C-147.37411865 337.72465332 -147.79975098 336.85018555 -148.23828125 335.94921875 C-148.96494995 334.47074463 -148.96494995 334.47074463 -149.70629883 332.96240234 C-150.20540771 331.93969238 -150.7045166 330.91698242 -151.21875 329.86328125 C-155.11197612 321.97178412 -159.14232265 314.26692381 -163.5859375 306.671875 C-165.60726615 303.13671867 -167.50319468 299.55751923 -169.34375 295.92578125 C-170.19259766 294.25322266 -170.19259766 294.25322266 -171.05859375 292.546875 C-172.27536607 289.78533086 -172.88482415 287.4363428 -173.40625 284.48828125 C-174.39047146 282.48046948 -175.38859073 280.47935373 -176.40625 278.48828125 C-176.40625 277.82828125 -176.40625 277.16828125 -176.40625 276.48828125 C-175.71917969 276.35550781 -175.03210938 276.22273438 -174.32421875 276.0859375 C-173.42316406 275.90933594 -172.52210938 275.73273438 -171.59375 275.55078125 C-170.70042969 275.37675781 -169.80710937 275.20273437 -168.88671875 275.0234375 C-166.29227829 274.51086972 -166.29227829 274.51086972 -163.40625 273.48828125 C-160.11186708 267.49689205 -159.99384915 260.8907955 -160.08496094 254.23022461 C-160.08653954 252.75523247 -160.08653954 252.75523247 -160.08815002 251.2504425 C-160.09173799 249.1306912 -160.1018292 247.01094272 -160.11782074 244.8912487 C-160.14094357 241.53184174 -160.14192532 238.17308939 -160.13653564 234.81361389 C-160.12390039 225.26774631 -160.1409262 215.72223125 -160.19677734 206.17651367 C-160.2294659 200.32389058 -160.22817617 194.47207645 -160.20575714 188.61941719 C-160.20401209 186.39592258 -160.21523407 184.1723774 -160.23986053 181.94901848 C-160.27352054 178.83741133 -160.26400095 175.72861371 -160.24511719 172.61694336 C-160.26564651 171.70606964 -160.28617584 170.79519592 -160.30732727 169.85671997 C-160.20725858 163.60314423 -158.52221169 160.58873409 -154.05868912 156.21941471 C-151.6430152 153.68869881 -150.72624634 150.70156993 -149.40625 147.48828125 C-147.44862497 144.46079989 -145.27490711 141.60736014 -143.09375 138.73828125 C-141.82921102 137.04964094 -140.56489441 135.3608341 -139.30078125 133.671875 C-138.33132568 132.38385986 -138.33132568 132.38385986 -137.34228516 131.06982422 C-134.29180843 127.00226547 -131.28911029 122.89988872 -128.28125 118.80078125 C-123.4474094 112.22985276 -118.56449301 105.69793782 -113.65478516 99.18359375 C-110.58795761 95.10129419 -107.59846702 90.9735135 -104.65625 86.80078125 C-100.42973885 80.81017624 -95.99558094 74.9906573 -91.53125 69.17578125 C-85.57137985 61.40685132 -79.82661728 53.52523361 -74.21875 45.5 C-54.65564831 17.51086879 -35.89475998 -0.59036333 0 0 Z M-53.40625 125.48828125 C-55.24169536 127.59664414 -56.95926898 129.70990968 -58.65625 131.92578125 C-59.15278076 132.56523682 -59.64931152 133.20469238 -60.16088867 133.86352539 C-63.33076629 137.98088976 -66.27782879 142.19071596 -69.09375 146.55859375 C-70.7935904 149.05776386 -72.74148992 151.2597229 -74.73828125 153.5234375 C-79.70217176 159.37083077 -84.10193879 165.71031457 -88.640625 171.890625 C-89.81237743 173.48576712 -90.98425591 175.08081667 -92.15625 176.67578125 C-92.75501953 177.49079102 -93.35378906 178.30580078 -93.97070312 179.14550781 C-97.89289283 184.47087662 -101.87296251 189.74667288 -105.90625 194.98828125 C-111.10165407 201.74080247 -116.19097109 208.56494198 -121.2175293 215.4440918 C-124.07228149 219.34613527 -126.95392472 223.2182727 -129.921875 227.03515625 C-130.75513306 228.11494751 -130.75513306 228.11494751 -131.60522461 229.21655273 C-132.64875914 230.56451072 -133.70111763 231.90570333 -134.76391602 233.23852539 C-138.34079303 237.87924963 -139.47898847 241.28778845 -139.34375 247.23828125 C-137.9158561 252.18831344 -135.17872378 256.17834474 -132.40625 260.48828125 C-131.82117676 261.4114917 -131.23610352 262.33470215 -130.63330078 263.28588867 C-129.4525086 265.1467123 -128.26781732 267.00506788 -127.07910156 268.86083984 C-125.57780264 271.21883445 -124.10609949 273.59144543 -122.6484375 275.9765625 C-121.85963289 277.25146168 -121.07058997 278.52621346 -120.28125 279.80078125 C-119.59804688 280.91066406 -118.91484375 282.02054688 -118.2109375 283.1640625 C-117.61539063 283.93105469 -117.01984375 284.69804687 -116.40625 285.48828125 C-115.41625 285.48828125 -114.42625 285.48828125 -113.40625 285.48828125 C-113.40625 286.14828125 -113.40625 286.80828125 -113.40625 287.48828125 C-111.44013996 287.26894778 -111.44013996 287.26894778 -109.40625 286.48828125 C-108.19792877 283.66685119 -107.26595399 281.04042432 -106.40625 278.11328125 C-105.88910487 276.45799427 -105.37087866 274.80304464 -104.8515625 273.1484375 C-104.60438477 272.34422363 -104.35720703 271.54000977 -104.10253906 270.71142578 C-103.24096398 267.96054826 -102.28081709 265.25433475 -101.28125 262.55078125 C-100.96929687 261.70644531 -100.65734375 260.86210937 -100.3359375 259.9921875 C-100.02914062 259.16589844 -99.72234375 258.33960938 -99.40625 257.48828125 C-98.73831665 255.65540902 -98.071674 253.82206599 -97.40625 251.98828125 C-97.07238281 251.07175781 -96.73851562 250.15523438 -96.39453125 249.2109375 C-95.76269958 247.47027871 -95.13471347 245.72821612 -94.51171875 243.984375 C-92.05584187 237.13927135 -89.43387757 230.36375233 -86.7800293 223.59350586 C-86.48781494 222.84721924 -86.19560059 222.10093262 -85.89453125 221.33203125 C-85.50068237 220.32946289 -85.50068237 220.32946289 -85.09887695 219.30664062 C-84.49291497 217.71580354 -83.94457635 216.10326029 -83.40625 214.48828125 C-82.52629031 212.04138695 -81.64222369 209.59620112 -80.75390625 207.15234375 C-80.49371201 206.43597748 -80.23351776 205.71961121 -79.96543884 204.98153687 C-79.41507836 203.46678078 -78.86450031 201.95210374 -78.3137207 200.4375 C-77.47454594 198.12922387 -76.63665486 195.82048446 -75.79882812 193.51171875 C-75.26309968 192.03773176 -74.72729487 190.56377252 -74.19140625 189.08984375 C-73.94238052 188.40322662 -73.6933548 187.7166095 -73.43678284 187.00918579 C-72.15087655 183.47711906 -70.81901118 179.97146159 -69.40625 176.48828125 C-67.58868232 171.67456686 -65.79738552 166.88170156 -64.40625 161.92578125 C-63.29822578 158.11694798 -61.85531063 154.53077313 -60.36328125 150.859375 C-59.24756173 148.09512296 -58.19717369 145.36436741 -57.40625 142.48828125 C-57.90125 141.49828125 -57.90125 141.49828125 -58.40625 140.48828125 C-57.74625 140.48828125 -57.08625 140.48828125 -56.40625 140.48828125 C-56.21289062 139.90820312 -56.01953125 139.328125 -55.8203125 138.73046875 C-54.34895833 134.31640625 -52.87760417 129.90234375 -51.40625 125.48828125 C-52.06625 125.48828125 -52.72625 125.48828125 -53.40625 125.48828125 Z " fill="#2E3A41" transform="translate(429.40625,70.51171875)"/>
<path d="M0 0 C1.31016083 0.00444122 2.62032166 0.00888245 3.97018433 0.01345825 C4.6922406 0.0131662 5.41429687 0.01287415 6.15823364 0.01257324 C8.54993621 0.01396895 10.94132901 0.0295412 13.33297729 0.04519653 C14.98921539 0.04892581 16.64545569 0.05177319 18.30169678 0.05377197 C22.6648872 0.06141514 27.02794486 0.08106944 31.39108276 0.10317993 C35.84174809 0.12362368 40.29243482 0.13277054 44.74313354 0.14285278 C53.47887161 0.16431474 62.2145017 0.19845885 70.95016479 0.24050903 C70.66889059 1.72168704 70.37482747 3.20044152 70.07516479 4.67800903 C69.91274292 5.50171997 69.75032104 6.32543091 69.58297729 7.17410278 C69.37414917 7.85601685 69.16532104 8.53793091 68.95016479 9.24050903 C68.29016479 9.57050903 67.63016479 9.90050903 66.95016479 10.24050903 C67.61016479 7.60050903 68.27016479 4.96050903 68.95016479 2.24050903 C44.53016479 2.24050903 20.11016479 2.24050903 -5.04983521 2.24050903 C-3.04983521 0.24050903 -3.04983521 0.24050903 0 0 Z " fill="#212B2D" transform="translate(416.0498352050781,71.75949096679688)"/>
<path d="M0 0 C0 3.19152617 -0.6089337 5.71447738 -1.53125 8.74633789 C-2.12240118 11.58848191 -2.09316359 14.21635713 -2.0625 17.12109375 C-2.05412109 18.42079102 -2.04574219 19.72048828 -2.03710938 21.05957031 C-2.03090576 21.76843384 -2.02470215 22.47729736 -2.01831055 23.2076416 C-1.86351482 42.05866509 -2.17357648 60.90263018 -2.5 79.75 C-2.52425388 81.15965775 -2.54850519 82.56931555 -2.57275391 83.97897339 C-2.71094138 91.98605917 -2.85340375 99.9930638 -3 108 C-3.33 108 -3.66 108 -4 108 C-4.09260248 94.50922588 -4.16371565 81.01852713 -4.20724869 67.52750015 C-4.22814037 61.26333659 -4.2564874 54.99939015 -4.30175781 48.73535156 C-4.34515836 42.6923585 -4.36912519 36.64957454 -4.37950897 30.60643768 C-4.38691069 28.29869036 -4.40136418 25.99095472 -4.42292023 23.6832962 C-4.45187649 20.45560299 -4.45595916 17.22877836 -4.45410156 14.00097656 C-4.47567322 12.56383301 -4.47567322 12.56383301 -4.49768066 11.09765625 C-4.45705348 4.59150282 -4.45705348 4.59150282 -1.97161865 1.37493896 C-1.3209845 0.92120911 -0.67035034 0.46747925 0 0 Z " fill="#172B23" transform="translate(274,229)"/>
<path d="M0 0 C-3 7.57142857 -3 7.57142857 -6 10 C-7.32 9.34 -8.64 8.68 -10 8 C-9.67 6.68 -9.34 5.36 -9 4 C-9.7425 4.680625 -10.485 5.36125 -11.25 6.0625 C-12.1575 6.701875 -13.065 7.34125 -14 8 C-16.171875 7.62109375 -16.171875 7.62109375 -18 7 C-16.58531689 6.03874097 -15.1681636 5.08111675 -13.75 4.125 C-12.96109375 3.59132813 -12.1721875 3.05765625 -11.359375 2.5078125 C-7.05346777 -0.2439759 -5.07844799 -1.41068 0 0 Z " fill="#2A373E" transform="translate(401,78)"/>
<path d="M0 0 C0.66 0.33 1.32 0.66 2 1 C-0.14055951 4.00379572 -2.28830452 7.00237866 -4.4375 10 C-5.04916016 10.85851562 -5.66082031 11.71703125 -6.29101562 12.6015625 C-6.87431641 13.41367187 -7.45761719 14.22578125 -8.05859375 15.0625 C-8.59798584 15.81660156 -9.13737793 16.57070313 -9.69311523 17.34765625 C-10.12438721 17.89292969 -10.55565918 18.43820312 -11 19 C-11.33 19 -11.66 19 -12 19 C-12.21913264 15.16517886 -11.91359909 12.37157936 -10 9 C-9.236875 8.71125 -8.47375 8.4225 -7.6875 8.125 C-3.77547943 6.48740999 -2.20456368 3.50853964 0 0 Z " fill="#AFACA5" transform="translate(310,281)"/>
<path d="M0 0 C1.80793935 5.54087887 0.42953357 11.81989354 -1.921875 17.05078125 C-2.9375 18.6875 -2.9375 18.6875 -5 21 C-5.99 21 -6.98 21 -8 21 C-7.34 20.67 -6.68 20.34 -6 20 C-5.7670285 18.0696647 -5.5395172 16.13836223 -5.3515625 14.203125 C-4.81448956 10.83746793 -3.42013991 8.08726068 -2 5 C-2 4.34 -2 3.68 -2 3 C-1.34 3 -0.68 3 0 3 C0 2.01 0 1.02 0 0 Z " fill="#ABACAA" transform="translate(373,208)"/>
<path d="M0 0 C0.66 0 1.32 0 2 0 C2 0.66 2 1.32 2 2 C2.66 2.33 3.32 2.66 4 3 C2.35 4.32 0.7 5.64 -1 7 C-0.41196203 10.02419525 0.22678118 13.01758453 1 16 C-1.34917898 13.84658594 -2.82443004 11.78332063 -4.25 8.9375 C-4.60578125 8.24527344 -4.9615625 7.55304688 -5.328125 6.83984375 C-5.54984375 6.23269531 -5.7715625 5.62554687 -6 5 C-5.67 4.34 -5.34 3.68 -5 3 C-4.34 3.33 -3.68 3.66 -3 4 C-2.54625 3.34 -2.0925 2.68 -1.625 2 C-1.08875 1.34 -0.5525 0.68 0 0 Z " fill="#202A30" transform="translate(268,361)"/>
<path d="M0 0 C0.33 0 0.66 0 1 0 C1.33 3.63 1.66 7.26 2 11 C2.99 10.67 3.98 10.34 5 10 C6 13 6 13 5 16 C4.01 16.33 3.02 16.66 2 17 C1.34 18.32 0.68 19.64 0 21 C0 14.07 0 7.14 0 0 Z " fill="#243238" transform="translate(271,313)"/>
<path d="M0 0 C2.0807127 2.51120498 3.94867055 4.90966016 5.5625 7.75 C6.86159181 10.30341851 6.86159181 10.30341851 10 11 C10 11.66 10 12.32 10 13 C10.99 13.33 11.98 13.66 13 14 C13 14.66 13 15.32 13 16 C7.25 15.25 7.25 15.25 5 13 C3.98470459 10.67328135 2.98511802 8.3396553 2 6 C1.34 5.01 0.68 4.02 0 3 C0 2.01 0 1.02 0 0 Z " fill="#A1A3A2" transform="translate(306,345)"/>
<path d="M0 0 C0.33 0.66 0.66 1.32 1 2 C0.14453125 4.56640625 0.14453125 4.56640625 -1.1875 7.5625 C-1.61417969 8.55378906 -2.04085938 9.54507813 -2.48046875 10.56640625 C-4 13 -4 13 -6.06640625 13.7421875 C-6.70449219 13.82726562 -7.34257812 13.91234375 -8 14 C-9.73026102 15.47890069 -9.73026102 15.47890069 -11 17 C-9.52869627 12.6426774 -7.16919385 9.28065866 -4.375 5.6875 C-3.95476562 5.13771484 -3.53453125 4.58792969 -3.1015625 4.02148438 C-2.07279961 2.67707832 -1.0370991 1.33798587 0 0 Z " fill="#EAE7E3" transform="translate(383,184)"/>
<path d="M0 0 C0.66 0.33 1.32 0.66 2 1 C0.50902342 4.7952131 -1.75700849 6.61042731 -5 9 C-8 5.25 -8 5.25 -8 3 C-6.865625 2.690625 -5.73125 2.38125 -4.5625 2.0625 C-1.21224901 1.37075469 -1.21224901 1.37075469 0 0 Z " fill="#654D9F" transform="translate(257,339)"/>
<path d="M0 0 C4.26768447 3.10656672 7.20382899 6.55905094 10.3125 10.75 C10.76689453 11.35199219 11.22128906 11.95398438 11.68945312 12.57421875 C12.79857709 14.04526738 13.90008363 15.52205412 15 17 C14.67 17.66 14.34 18.32 14 19 C13.278125 18.0925 12.55625 17.185 11.8125 16.25 C10.05204439 14.11444732 8.54272269 12.64906625 6.3125 10.9375 C3.68701695 8.73777095 3.0443114 7.21326586 2 4 C1.34786461 2.65949948 0.68620031 1.32338632 0 0 Z " fill="#D2C9D4" transform="translate(182,124)"/>
<path d="M0 0 C3.54138803 2.02185629 6.66189153 4.21176551 9.75 6.875 C10.52859375 7.53242187 11.3071875 8.18984375 12.109375 8.8671875 C14.24833909 11.28015112 14.66908326 12.83422987 15 16 C14.34 15.34 13.68 14.68 13 14 C12.55011719 13.55140625 12.10023438 13.1028125 11.63671875 12.640625 C10.40509924 11.40606606 9.17955762 10.16543911 7.95703125 8.921875 C7.24933594 8.20515625 6.54164063 7.4884375 5.8125 6.75 C4.80123047 5.72132812 4.80123047 5.72132812 3.76953125 4.671875 C2.09201005 2.92550889 2.09201005 2.92550889 0 2 C0 1.34 0 0.68 0 0 Z " fill="#64499E" transform="translate(148,86)"/>
<path d="M0 0 C0 3 0 3 -1.375 5.125 C-3.524114 8.92727862 -4.21055471 12.73699542 -5 17 C-5.66 16.34 -6.32 15.68 -7 15 C-7 8.48072106 -4.12201453 4.85313637 0 0 Z " fill="#EBE9E3" transform="translate(295,302)"/>
<path d="M0 0 C3.68802044 1.22934015 4.72356973 2.93859378 7 6 C3.21326759 7.26224414 1.6717132 6.32806648 -2 5 C-2.66 5 -3.32 5 -4 5 C-4 4.34 -4 3.68 -4 3 C-3.01 2.67 -2.02 2.34 -1 2 C-0.67 1.34 -0.34 0.68 0 0 Z " fill="#263237" transform="translate(297,284)"/>
<path d="M0 0 C0.66 0.33 1.32 0.66 2 1 C2 1.66 2 2.32 2 3 C2.66 3.33 3.32 3.66 4 4 C1.74259377 6.33524782 -0.2805761 8.18705073 -3 10 C-3.36923077 4.58461538 -3.36923077 4.58461538 -1.5 1.625 C-1.005 1.08875 -0.51 0.5525 0 0 Z " fill="#26343B" transform="translate(274,283)"/>
<path d="M0 0 C0.66 0 1.32 0 2 0 C2.33 0.99 2.66 1.98 3 3 C2.00390625 4.82421875 2.00390625 4.82421875 0.5625 6.6875 C0.08941406 7.31011719 -0.38367188 7.93273437 -0.87109375 8.57421875 C-1.24363281 9.04472656 -1.61617188 9.51523438 -2 10 C-3.125 8.25 -3.125 8.25 -4 6 C-3.05773345 3.33024478 -2.01384202 2.01384202 0 0 Z " fill="#757773" transform="translate(348,227)"/>
<path d="M0 0 C-0.53109375 0.24234375 -1.0621875 0.4846875 -1.609375 0.734375 C-4.9907644 2.33868384 -7.6135395 3.60280448 -10.25 6.3125 C-10.8275 6.869375 -11.405 7.42625 -12 8 C-14.109375 7.60546875 -14.109375 7.60546875 -16 7 C-14.58531689 6.03874097 -13.1681636 5.08111675 -11.75 4.125 C-10.96109375 3.59132813 -10.1721875 3.05765625 -9.359375 2.5078125 C-3.57207719 -1.1906924 -3.57207719 -1.1906924 0 0 Z " fill="#192227" transform="translate(399,78)"/>
<path d="M0 0 C0.33 0.99 0.66 1.98 1 3 C-0.43359375 5.04296875 -0.43359375 5.04296875 -2.4375 7.1875 C-3.42556641 8.26064453 -3.42556641 8.26064453 -4.43359375 9.35546875 C-5.20896484 10.16951172 -5.20896484 10.16951172 -6 11 C-7.65 10.67 -9.3 10.34 -11 10 C-11 9.01 -11 8.02 -11 7 C-10.443125 7.268125 -9.88625 7.53625 -9.3125 7.8125 C-8.1678125 7.9053125 -8.1678125 7.9053125 -7 8 C-4.12969001 5.53973429 -2.09673857 3.14510786 0 0 Z " fill="#E7E4E0" transform="translate(277,222)"/>
<path d="M0 0 C1.0625 1.8125 1.0625 1.8125 2 4 C1.67 4.99 1.34 5.98 1 7 C-0.65 7 -2.3 7 -4 7 C-4.66 8.32 -5.32 9.64 -6 11 C-6 7.39426104 -5.18292538 6.58663434 -3 3.8125 C-2.443125 3.09707031 -1.88625 2.38164062 -1.3125 1.64453125 C-0.879375 1.10183594 -0.44625 0.55914062 0 0 Z " fill="#1D262B" transform="translate(344,134)"/>
<path d="M0 0 C2.97 0.495 2.97 0.495 6 1 C5.79375 1.61875 5.5875 2.2375 5.375 2.875 C5.25125 3.57625 5.1275 4.2775 5 5 C5.66 5.66 6.32 6.32 7 7 C5.68 7.33 4.36 7.66 3 8 C0 3.375 0 3.375 0 0 Z " fill="#836FB2" transform="translate(148,212)"/>
<path d="M0 0 C0.66 0.66 1.32 1.32 2 2 C2.66 1.34 3.32 0.68 4 0 C3.71872579 1.48117801 3.42466268 2.95993249 3.125 4.4375 C2.96257812 5.26121094 2.80015625 6.08492187 2.6328125 6.93359375 C2.42398437 7.61550781 2.21515625 8.29742187 2 9 C1.01 9.495 1.01 9.495 0 10 C-1.125 8.375 -1.125 8.375 -2 6 C-1.125 2.75 -1.125 2.75 0 0 Z " fill="#1F2930" transform="translate(443,184)"/>
<path d="M0 0 C0.66 0 1.32 0 2 0 C2.16682272 4.92127034 2.24828052 8.50343896 0 13 C-0.99 11.68 -1.98 10.36 -3 9 C-2.505 8.071875 -2.01 7.14375 -1.5 6.1875 C0.21289852 3.13472484 0.21289852 3.13472484 0 0 Z " fill="#A3A4A1" transform="translate(332,318)"/>
<path d="M0 0 C0.66 0.66 1.32 1.32 2 2 C1.54545455 7.45454545 1.54545455 7.45454545 -1 10 C-1.66 10 -2.32 10 -3 10 C-2.49287967 6.28111761 -1.88391785 3.26545761 0 0 Z " fill="#7A7D7D" transform="translate(412,279)"/>
<path d="M0 0 C0.66 0.66 1.32 1.32 2 2 C-0.475 7.94 -0.475 7.94 -3 14 C-4.1750709 10.47478731 -3.72717795 9.34332144 -2.625 5.875 C-2.34914063 4.98554688 -2.07328125 4.09609375 -1.7890625 3.1796875 C-1 1 -1 1 0 0 Z " fill="#ECEBE6" transform="translate(326,337)"/>
<path d="M0 0 C2.64 1.98 5.28 3.96 8 6 C7.67 7.32 7.34 8.64 7 10 C5.82739389 8.71372289 4.6620717 7.42080217 3.5 6.125 C2.8503125 5.40570313 2.200625 4.68640625 1.53125 3.9453125 C0 2 0 2 0 0 Z " fill="#826EAA" transform="translate(257,221)"/>
<path d="M0 0 C1.65 0 3.3 0 5 0 C5 0.99 5 1.98 5 3 C4.34 3 3.68 3 3 3 C3.33 4.65 3.66 6.3 4 8 C2 6.25 2 6.25 0 4 C0 2.68 0 1.36 0 0 Z " fill="#8E7EBA" transform="translate(123,180)"/>
<path d="M0 0 C1.65653354 4.96960061 -1.07231419 9.31847732 -3 14 C-4.37095624 10.30962722 -3.60010967 8.29116165 -2.0625 4.75 C-1.68222656 3.85796875 -1.30195313 2.9659375 -0.91015625 2.046875 C-0.60980469 1.37140625 -0.30945313 0.6959375 0 0 Z " fill="#F0EEEB" transform="translate(390,345)"/>
<path d="M0 0 C-0.33 0.99 -0.66 1.98 -1 3 C-2.65 3.33 -4.3 3.66 -6 4 C-6.33 2.68 -6.66 1.36 -7 0 C-2.25 -1.125 -2.25 -1.125 0 0 Z " fill="#273031" transform="translate(297,298)"/>
<path d="M0 0 C0.66 0.33 1.32 0.66 2 1 C1.19152271 2.16945792 0.37810888 3.33550461 -0.4375 4.5 C-0.88996094 5.1496875 -1.34242188 5.799375 -1.80859375 6.46875 C-2.20175781 6.9740625 -2.59492188 7.479375 -3 8 C-3.33 8 -3.66 8 -4 8 C-4 5.69 -4 3.38 -4 1 C-2.68 1.33 -1.36 1.66 0 2 C0 1.34 0 0.68 0 0 Z " fill="#A9A7A0" transform="translate(331,253)"/>
<path d="M0 0 C0 3 0 3 -2.5 5.6875 C-3.325 6.450625 -4.15 7.21375 -5 8 C-5 5 -5 5 -2.5 2.3125 C-1.675 1.549375 -0.85 0.78625 0 0 Z " fill="#2A2C25" transform="translate(356,218)"/>
<path d="M0 0 C0.66 0.33 1.32 0.66 2 1 C0.62673398 5.11979807 -2.08595092 8.04297546 -6 10 C-4.34832443 6.4213696 -2.21713508 3.25179812 0 0 Z " fill="#EAE9E3" transform="translate(358,217)"/>
<path d="M0 0 C0.66 0 1.32 0 2 0 C0.98823563 3.40320742 0.35156418 4.75725331 -2.625 6.8125 C-3.40875 7.204375 -4.1925 7.59625 -5 8 C-3.63055898 5.05043472 -2.12169591 2.47531189 0 0 Z " fill="#182228" transform="translate(294,202)"/>
<path d="M0 0 C4.875 4.75 4.875 4.75 6 7 C5.01 7.33 4.02 7.66 3 8 C0.37613513 4.93882432 0 4.26826873 0 0 Z " fill="#A99CC3" transform="translate(175,115)"/>
<path d="M0 0 C2.64 0 5.28 0 8 0 C6 2 6 2 3 3 C2.67 3.66 2.34 4.32 2 5 C1.34 3.35 0.68 1.7 0 0 Z " fill="#1B252E" transform="translate(253,347)"/>
<path d="M0 0 C1.28485596 5.13942384 0.22194431 6.37835584 -2 11 C-2.66 10.34 -3.32 9.68 -4 9 C-2.68 6.03 -1.36 3.06 0 0 Z " fill="#EEEDE8" transform="translate(341,296)"/>
<path d="M0 0 C1.32 0.33 2.64 0.66 4 1 C4.68707555 3.49064888 5 5.37886292 5 8 C0 2.25 0 2.25 0 0 Z " fill="#583C97" transform="translate(216,299)"/>
<path d="M0 0 C0.33 0.99 0.66 1.98 1 3 C1.66 3.66 2.32 4.32 3 5 C0.69 5.33 -1.62 5.66 -4 6 C-2.68 4.02 -1.36 2.04 0 0 Z " fill="#1A242A" transform="translate(308,183)"/>
<path d="M0 0 C0 1.32 0 2.64 0 4 C-2.4375 3.625 -2.4375 3.625 -5 3 C-5.33 2.34 -5.66 1.68 -6 1 C-3 0 -3 0 0 0 Z " fill="#767B7D" transform="translate(403,74)"/>
<path d="" fill="#EFECED" transform="translate(0,0)"/>
<path d="" fill="#FDFFF9" transform="translate(0,0)"/>
</svg>
